<svg version="1.1" id="COMP_A_R3" xmlns="http://www.w3.org/2000/svg" xmlns:xlink="http://www.w3.org/1999/xlink" x="0px" y="0px"
     viewBox="0 0 204.09 204.09" style="enable-background:new 0 0 204.09 204.09;" xml:space="preserve">
<path style="fill:#0366AD" d="M86.28,30.57L30.77,57.31c-0.99,0.48-1.7,1.37-1.95,2.44l-13.71,60.07c-0.24,1.07,0.01,2.19,0.7,3.05
	l38.42,48.17c0.68,0.86,1.72,1.36,2.81,1.36h61.62c1.1,0,2.13-0.5,2.81-1.36l38.42-48.17c0.68-0.86,0.94-1.98,0.7-3.05l-13.71-60.07
	c-0.24-1.07-0.96-1.97-1.95-2.44L89.4,30.57C88.42,30.1,87.27,30.1,86.28,30.57z"/>
    <path style="fill:#6593C8" d="M155.23,30.53l-21.82,7.94c-0.4,0.14-0.73,0.42-0.94,0.79l-11.62,20.12c-0.21,0.37-0.29,0.8-0.21,1.21
	l4.03,22.87c0.07,0.42,0.29,0.79,0.62,1.07l17.79,14.93c0.32,0.27,0.73,0.42,1.16,0.42h23.23c0.42,0,0.83-0.15,1.16-0.42
	l17.79-14.93c0.32-0.27,0.54-0.65,0.62-1.07l4.03-22.87c0.07-0.42,0-0.85-0.21-1.21l-11.61-20.11c-0.21-0.37-0.55-0.65-0.94-0.79
	l-21.82-7.94C156.06,30.38,155.63,30.38,155.23,30.53z"/>
    <g>
	<path style="fill:#FFFFFF" d="M151.61,57.01c0.43-0.42,0.89-0.8,1.35-1.16c0.47-0.35,0.97-0.65,1.49-0.9c0.53-0.25,1.09-0.45,1.7-0.59
		s1.27-0.21,1.98-0.21c1.18,0,2.22,0.2,3.13,0.61s1.68,0.97,2.3,1.7s1.09,1.6,1.41,2.6c0.31,1.01,0.47,2.11,0.47,3.32v13.75h-5.78
		V62.39c0-1.2-0.28-2.14-0.84-2.8c-0.56-0.67-1.39-1-2.48-1c-0.81,0-1.57,0.17-2.29,0.52c-0.71,0.35-1.39,0.84-2.04,1.47v15.56h-5.8
		V54.49h3.57c0.73,0,1.21,0.34,1.45,1.01L151.61,57.01z"/>
</g>
    <g>
	<path style="fill:#FFFFFF" d="M68.16,80.65h12.23v24.14h0.24c1.21-2.11,2.51-4.05,3.73-5.99l12.39-18.14h15.15l-18.06,23.25l19.03,31.34
		H98.45l-13.36-23.57l-4.7,5.75v17.82H68.16V80.65z"/>
</g>
</svg>